/* XPM */
const static char * tick_xpm[] = {
"16 16 32 1",
" 	c None",
".	c #FFFFFF",
"+	c #D39B00",
"@	c #E1AE00",
"#	c #EBBB00",
"$	c #DAA400",
"%	c #ECBB00",
"&	c #D49D00",
"*	c #E3B100",
"=	c #E9B700",
"-	c #DFAB00",
";	c #C78B00",
">	c #D49F00",
",	c #BF7F00",
"'	c #C27F00",
")	c #E3B000",
"!	c #E2B000",
"~	c #BF8D00",
"{	c #BEA333",
"]	c #BEAD5F",
"^	c #D5C478",
"/	c #CAAF40",
"(	c #0B0600",
"_	c #B9B9B9",
":	c #D3D3D3",
"<	c #F9F9F9",
"[	c #CFCFCF",
"}	c #000000",
"|	c #7A7A7A",
"1	c #BCBCBC",
"2	c #DADADA",
"3	c #888888",
".....+@##@+.....",
"....$      $....",
".%.&        &.%.",
"...*        *...",
"...%        %...",
"%%.=        =.%%",
"...-        -...",
"...;        ;...",
"%%..>      >..%%",
"....,      '....",
"..%..)    !..%..",
".%...~{]^/~...%.",
".....(_:<[(.....",
".....}_:<[}.....",
".....}|123}.....",
"......}}}}......"};
