/* XPM */
const static char * cross_xpm[] = {
"16 16 59 1",
" 	c None",
".	c #FFFFFF",
"+	c #FCFCFC",
"@	c #CFCFCF",
"#	c #020202",
"$	c #000000",
"%	c #010101",
"&	c #151515",
"*	c #BABABA",
"=	c #FDFDFD",
"-	c #C1C1C1",
";	c #373737",
">	c #050505",
",	c #0D0D0D",
"'	c #3D3D3D",
")	c #C4C4C4",
"!	c #575757",
"~	c #181818",
"{	c #171717",
"]	c #4B4B4B",
"^	c #DDDDDD",
"/	c #333333",
"(	c #040404",
"_	c #282828",
":	c #E5E5E5",
"<	c #E0E0E0",
"[	c #2A2A2A",
"}	c #1A1A1A",
"|	c #EFEFEF",
"1	c #FEFEFE",
"2	c #D7D7D7",
"3	c #303030",
"4	c #030303",
"5	c #1D1D1D",
"6	c #F0F0F0",
"7	c #D3D3D3",
"8	c #444444",
"9	c #111111",
"0	c #474747",
"a	c #DADADA",
"b	c #1C1C1C",
"c	c #060606",
"d	c #2F2F2F",
"e	c #D0D0D0",
"f	c #F2F2F2",
"g	c #070707",
"h	c #080808",
"i	c #DEDEDE",
"j	c #ADADAD",
"k	c #AFAFAF",
"l	c #777777",
"m	c #9E9E9E",
"n	c #ACACAC",
"o	c #C8C8C8",
"p	c #B9B9B9",
"q	c #F9F9F9",
"r	c #7A7A7A",
"s	c #BCBCBC",
"t	c #888888",
"..+.@#$$$%&*.=..",
"...-;>$$$$,')...",
"...!~$$$$$${]...",
"..^/($$$$$$%_:..",
"..<[%$$$$$$$}|..",
".1234$$$$$$$56..",
".17;>$$$$$$#_:..",
"...89$$$$$$&0...",
"...ab>$$$$cde...",
"..1.fg$$$$hi....",
"....1j$$$$k=....",
".....lmnokl.....",
".....$p7q@$.....",
".....$p7q@$.....",
".....$rsat$.....",
"......$$$$......"};
