/* XPM */
const static char * ruler_xpm[] = {
"16 16 56 1",
" 	c None",
".	c #EBBA4E",
"+	c #EFBE55",
"@	c #E9B744",
"#	c #EEBB49",
"$	c #EEBC4C",
"%	c #EEBD52",
"&	c #E7B43A",
"*	c #ECB83E",
"=	c #E3B23F",
"-	c #D1A43C",
";	c #DBAD43",
">	c #DEB24A",
",	c #E5B030",
"'	c #EAB534",
")	c #E8B437",
"!	c #ECB83B",
"~	c #DAAB3B",
"{	c #D5A93F",
"]	c #E2AD26",
"^	c #E9B22A",
"/	c #E9B42E",
"(	c #C4982A",
"_	c #DFAD34",
":	c #C59B33",
"<	c #E0AA1C",
"[	c #E7AF20",
"}	c #D7A423",
"|	c #E8B227",
"1	c #DDAA2A",
"2	c #CDA12F",
"3	c #DDA614",
"4	c #E5AC17",
"5	c #E6AE1A",
"6	c #DCA71D",
"7	c #C69924",
"8	c #D3A225",
"9	c #DBA40F",
"0	c #E4AA0E",
"a	c #D9A211",
"b	c #D39F16",
"c	c #D3A018",
"d	c #D9A61D",
"e	c #DBA30F",
"f	c #E3A90E",
"g	c #CD9B15",
"h	c #D4A218",
"i	c #E3AA0E",
"j	c #BD8F12",
"k	c #DDA50F",
"l	c #C59515",
"m	c #D7A010",
"n	c #DEA50E",
"o	c #C5971B",
"p	c #D59F10",
"q	c #C79715",
"                ",
"          .+    ",
"         @#$%   ",
"        &*=-;>  ",
"       ,')!~{   ",
"      ]^/(_:    ",
"     <[}|12     ",
"    345678      ",
"   90abcd       ",
"  e0f0gh        ",
"  ifjkl         ",
"  mino          ",
"   pq           ",
"                ",
"                ",
"                "};
