/* XPM */
const static char * key_xpm[] = {
"16 16 46 1",
" 	c None",
".	c #A17035",
"+	c #A77437",
"@	c #AB7639",
"#	c #A57237",
"$	c #AE7839",
"%	c #BB823E",
"&	c #C08844",
"*	c #C18948",
"=	c #BD833F",
"-	c #B77E3D",
";	c #C18846",
">	c #BF8641",
",	c #C38C4C",
"'	c #C79357",
")	c #C69255",
"!	c #C8965B",
"~	c #C48F50",
"{	c #CDA06A",
"]	c #CD9F68",
"^	c #C9985E",
"/	c #D2AA7B",
"(	c #D2A979",
"_	c #CFA370",
":	c #DAB78F",
"<	c #D6B084",
"[	c #D6B185",
"}	c #D7B489",
"|	c #D5AF82",
"1	c #DEBF9C",
"2	c #DCBC97",
"3	c #DBBA94",
"4	c #D9B78E",
"5	c #DEC09D",
"6	c #E3CAAC",
"7	c #DAB891",
"8	c #E1C6A6",
"9	c #DDBD98",
"0	c #E7D1B8",
"a	c #E4CDB0",
"b	c #DFC3A1",
"c	c #EBD8C2",
"d	c #DFC2A0",
"e	c #E7D2B9",
"f	c #EEDFCD",
"g	c #E0C4A3",
"                ",
"                ",
"   .+@@#        ",
"  $%&*==-       ",
"  ;>  ,,,=      ",
"  ') )!!!~      ",
"  {{{{]{{^      ",
"  /((((((_      ",
"   :<[[[}|      ",
"    123245}     ",
"        6789    ",
"         02ab   ",
"          cdee  ",
"           fg0  ",
"                ",
"                "};
